<svg width="18" height="19" viewBox="0 0 18 19" fill="none" xmlns="http://www.w3.org/2000/svg">
<path d="M15.6726 2.47721C15.3351 2.13976 14.8773 1.9502 14.4 1.9502C13.9228 1.9502 13.465 2.13976 13.1274 2.47721L6.30005 9.30461V11.8498H8.84525L15.6726 5.02241C16.0101 4.68486 16.1997 4.22711 16.1997 3.74981C16.1997 3.27252 16.0101 2.81476 15.6726 2.47721Z" fill="white"/>
<path fill-rule="evenodd" clip-rule="evenodd" d="M1.80005 5.54976C1.80005 5.07237 1.98969 4.61453 2.32726 4.27696C2.66482 3.9394 3.12266 3.74976 3.60005 3.74976H7.20005C7.43874 3.74976 7.66766 3.84458 7.83644 4.01336C8.00523 4.18214 8.10005 4.41106 8.10005 4.64976C8.10005 4.88845 8.00523 5.11737 7.83644 5.28615C7.66766 5.45493 7.43874 5.54976 7.20005 5.54976H3.60005V14.5498H12.6V10.9498C12.6 10.7111 12.6949 10.4821 12.8637 10.3134C13.0324 10.1446 13.2614 10.0498 13.5 10.0498C13.7387 10.0498 13.9677 10.1446 14.1364 10.3134C14.3052 10.4821 14.4 10.7111 14.4 10.9498V14.5498C14.4 15.0271 14.2104 15.485 13.8728 15.8225C13.5353 16.1601 13.0774 16.3498 12.6 16.3498H3.60005C3.12266 16.3498 2.66482 16.1601 2.32726 15.8225C1.98969 15.485 1.80005 15.0271 1.80005 14.5498V5.54976Z" fill="white"/>
</svg>
